<svg id="Capa_1" data-name="Capa 1" xmlns="http://www.w3.org/2000/svg" xmlns:xlink="http://www.w3.org/1999/xlink" viewBox="0 0 318.84 227.09"><defs><style>.cls-1{isolation:isolate;opacity:0.95;fill:url(#Degradado_sin_nombre_3);}.cls-2{fill:url(#Degradado_sin_nombre_2);}</style><linearGradient id="Degradado_sin_nombre_3" x1="277.05" y1="330.37" x2="277.05" y2="103.28" gradientUnits="userSpaceOnUse"><stop offset="0" stop-color="#051477"/><stop offset="1" stop-color="#072ff6"/></linearGradient><linearGradient id="Degradado_sin_nombre_2" x1="2.28" y1="499.65" x2="2.28" y2="499.51" gradientTransform="matrix(-1400.21, 1017.71, 848.52, 1167.44, -420422.76, -585387.13)" gradientUnits="userSpaceOnUse"><stop offset="0" stop-color="#051477"/><stop offset="1" stop-color="#040bcf"/></linearGradient></defs><g id="SHAPES_COMPUESTO" data-name="SHAPES COMPUESTO"><path class="cls-1" d="M253.64,330.37C325,258.9,422.74,160.86,424.3,158.92c-37.65-78-70.35,6.16-178.21-44.12-70.23-32.74-83.79,11.85-116.28,40Z" transform="translate(-127.16 -103.28)"/><path id="Bg_Shape-2" data-name="Bg Shape-2" class="cls-2" d="M137.71,171.62s-4-5.25-10.55-14.49c4.58-12.95,18.77-21.15,59.25-6.06,75.79,28.25,107.58-11.35,147.1-25.69s96-3.82,112.49,53.29c-2.06,1.86-197.69,144.22-197.69,144.22l-35.29-48-10.86-15.11L170.93,217l-20.79-28.24Z" transform="translate(-127.16 -103.28)"/></g></svg>