<svg id="Capa_1" data-name="Capa 1" xmlns="http://www.w3.org/2000/svg" viewBox="0 0 152.61 35.97"><defs><style>.cls-1{fill:#061477;}.cls-2{fill:none;stroke:#2c0080;stroke-linecap:round;stroke-linejoin:round;stroke-width:2.23px;}</style></defs><path class="cls-1" d="M247.14,223.21a19.72,19.72,0,0,1,3.3-.26,5.49,5.49,0,0,1,3.74,1.11,3.59,3.59,0,0,1,1.17,2.79,3.93,3.93,0,0,1-1,2.85,5.52,5.52,0,0,1-4.08,1.46,5.85,5.85,0,0,1-1.38-.11v5.34h-1.72Zm1.72,6.43a5.66,5.66,0,0,0,1.42.14c2.08,0,3.35-1,3.35-2.85s-1.25-2.61-3.15-2.61a7.16,7.16,0,0,0-1.62.14Z" transform="translate(-183.39 -221.81)"/><path class="cls-1" d="M257.66,223.23A17.78,17.78,0,0,1,261,223a5.44,5.44,0,0,1,3.85,1.09,3.31,3.31,0,0,1,1.05,2.53,3.51,3.51,0,0,1-2.51,3.41V230a3.31,3.31,0,0,1,2,2.69,20.57,20.57,0,0,0,1,3.66h-1.78a16.85,16.85,0,0,1-.89-3.19c-.4-1.84-1.11-2.53-2.68-2.59h-1.62v5.78h-1.72Zm1.72,6.07h1.76c1.84,0,3-1,3-2.53,0-1.72-1.25-2.47-3.07-2.49a7,7,0,0,0-1.7.16Z" transform="translate(-183.39 -221.81)"/><path class="cls-1" d="M279.76,229.58c0,4.59-2.79,7-6.19,7s-6-2.73-6-6.77c0-4.24,2.63-7,6.19-7S279.76,225.62,279.76,229.58Zm-10.35.22c0,2.85,1.55,5.4,4.26,5.4s4.27-2.51,4.27-5.54c0-2.65-1.39-5.42-4.25-5.42S269.41,226.87,269.41,229.8Z" transform="translate(-183.39 -221.81)"/><path class="cls-1" d="M282,223.05h7.19v1.45h-5.47v4.43h5.05v1.42h-5.05v6H282Z" transform="translate(-183.39 -221.81)"/><path class="cls-1" d="M298.53,230.14h-5.18v4.8h5.78v1.45h-7.5V223.05h7.2v1.45h-5.48v4.21h5.18Z" transform="translate(-183.39 -221.81)"/><path class="cls-1" d="M301.12,234.29a6,6,0,0,0,3.09.87c1.76,0,2.79-.93,2.79-2.27s-.71-2-2.51-2.66c-2.18-.77-3.53-1.89-3.53-3.77,0-2.08,1.73-3.63,4.32-3.63a6.05,6.05,0,0,1,3,.66l-.48,1.4a5.25,5.25,0,0,0-2.53-.63c-1.82,0-2.51,1.09-2.51,2,0,1.24.81,1.86,2.65,2.57,2.25.87,3.4,2,3.4,3.92s-1.52,3.84-4.67,3.84a6.91,6.91,0,0,1-3.4-.85Z" transform="translate(-183.39 -221.81)"/><path class="cls-1" d="M317.36,236.39v-5.66l-4.21-7.68h2l1.88,3.68c.51,1,.91,1.82,1.32,2.75h0c.38-.87.84-1.74,1.35-2.75l1.92-3.68h2l-4.47,7.66v5.68Z" transform="translate(-183.39 -221.81)"/><path class="cls-1" d="M258.38,250.27c-.1-1.86-.22-4.1-.2-5.76h-.06c-.46,1.56-1,3.22-1.68,5.06L254.08,256h-1.3l-2.16-6.35c-.63-1.88-1.17-3.6-1.54-5.18h0c0,1.66-.14,3.9-.26,5.89l-.36,5.72h-1.64l.93-13.33h2.2l2.27,6.45c.56,1.64,1,3.1,1.35,4.49h.06c.33-1.35.81-2.81,1.4-4.49l2.38-6.45h2.19l.83,13.33h-1.68Z" transform="translate(-183.39 -221.81)"/><path class="cls-1" d="M265,251.93l-1.38,4.19h-1.79l4.54-13.33h2.07L273,256.12h-1.84l-1.42-4.19Zm4.37-1.35-1.3-3.84c-.3-.87-.5-1.66-.7-2.43h0c-.2.79-.42,1.6-.68,2.41l-1.3,3.86Z" transform="translate(-183.39 -221.81)"/><path class="cls-1" d="M281.86,249.87h-5.19v4.81h5.78v1.44H275V242.79h7.2v1.44h-5.48v4.22h5.19Z" transform="translate(-183.39 -221.81)"/><path class="cls-1" d="M284.45,254a6.14,6.14,0,0,0,3.08.87c1.76,0,2.79-.93,2.79-2.28s-.71-2-2.51-2.65c-2.18-.77-3.52-1.9-3.52-3.78,0-2.08,1.72-3.62,4.31-3.62a6.12,6.12,0,0,1,2.95.65l-.47,1.41a5.31,5.31,0,0,0-2.54-.64c-1.82,0-2.51,1.09-2.51,2,0,1.25.81,1.86,2.65,2.57,2.26.88,3.4,2,3.4,3.92s-1.52,3.84-4.67,3.84a6.84,6.84,0,0,1-3.4-.85Z" transform="translate(-183.39 -221.81)"/><path class="cls-1" d="M297,244.25h-4.06v-1.46h9.88v1.46h-4.08v11.87H297Z" transform="translate(-183.39 -221.81)"/><path class="cls-1" d="M304.27,243a18.72,18.72,0,0,1,3.3-.27,5.42,5.42,0,0,1,3.86,1.09,3.32,3.32,0,0,1,1.05,2.53,3.5,3.5,0,0,1-2.51,3.4v.06a3.34,3.34,0,0,1,2,2.69,21.52,21.52,0,0,0,1,3.66h-1.78a18.11,18.11,0,0,1-.89-3.18c-.39-1.84-1.1-2.54-2.67-2.59H306v5.77h-1.72ZM306,249h1.76c1.84,0,3-1,3-2.53,0-1.72-1.25-2.48-3.07-2.5a7,7,0,0,0-1.7.16Z" transform="translate(-183.39 -221.81)"/><path class="cls-1" d="M326.37,249.32c0,4.59-2.79,7-6.2,7s-6-2.73-6-6.77c0-4.23,2.63-7,6.19-7S326.37,245.36,326.37,249.32Zm-10.35.21c0,2.85,1.54,5.41,4.25,5.41s4.28-2.52,4.28-5.54c0-2.66-1.39-5.43-4.26-5.43S316,246.61,316,249.53Z" transform="translate(-183.39 -221.81)"/><path class="cls-1" d="M328.36,254a6.15,6.15,0,0,0,3.09.87c1.76,0,2.79-.93,2.79-2.28s-.71-2-2.51-2.65c-2.18-.77-3.53-1.9-3.53-3.78,0-2.08,1.73-3.62,4.32-3.62a6.18,6.18,0,0,1,3,.65l-.48,1.41a5.23,5.23,0,0,0-2.53-.64c-1.82,0-2.51,1.09-2.51,2,0,1.25.81,1.86,2.65,2.57,2.25.88,3.4,2,3.4,3.92s-1.52,3.84-4.67,3.84a6.81,6.81,0,0,1-3.4-.85Z" transform="translate(-183.39 -221.81)"/><path class="cls-2" d="M184.61,235.76l13.16-11.44a4.86,4.86,0,0,1,3.4-1.39h26a6.75,6.75,0,0,1,6.75,6.75h0a6.72,6.72,0,0,1-2,4.77L220.37,246a.17.17,0,0,1-.3-.12V242.1a5.84,5.84,0,0,0-6.12-5.83l-29.1.07A.34.34,0,0,1,184.61,235.76Z" transform="translate(-183.39 -221.81)"/><path class="cls-2" d="M220.07,244.93v.46c0,.85-.69,1.08-1.54,1.08H184.67" transform="translate(-183.39 -221.81)"/><line class="cls-2" x1="29.52" y1="19.77" x2="4.55" y2="19.77"/><path class="cls-2" d="M232.91,233.66a6.75,6.75,0,0,1,4.12,6.22h0a6.72,6.72,0,0,1-2,4.77l-11.54,11.54a.17.17,0,0,1-.3-.12V252.3a5.84,5.84,0,0,0-6.12-5.83l-29.1.07" transform="translate(-183.39 -221.81)"/><path class="cls-2" d="M223.21,255.13v.46c0,.85-.69,1.08-1.54,1.08H185.46" transform="translate(-183.39 -221.81)"/><line class="cls-2" x1="32.66" y1="29.97" x2="5.33" y2="29.97"/></svg>