<svg id="Capa_2" data-name="Capa 2" xmlns="http://www.w3.org/2000/svg" viewBox="0 0 110.55 26.06"><defs><style>.cls-1{fill:#fff;}.cls-2{fill:none;stroke:#fff;stroke-linecap:round;stroke-linejoin:round;stroke-width:1.62px;}</style></defs><path class="cls-1" d="M631.4,348.48a14.7,14.7,0,0,1,2.4-.18,4,4,0,0,1,2.71.8,2.59,2.59,0,0,1,.84,2,2.87,2.87,0,0,1-.74,2.06,4,4,0,0,1-3,1.06,4.41,4.41,0,0,1-1-.08V358H631.4Zm1.25,4.66a4.27,4.27,0,0,0,1,.1c1.51,0,2.42-.73,2.42-2.06s-.9-1.89-2.27-1.89a5.13,5.13,0,0,0-1.18.1Z" transform="translate(-585.22 -347.47)"/><path class="cls-1" d="M639,348.5a12.86,12.86,0,0,1,2.39-.2,4,4,0,0,1,2.8.78,2.44,2.44,0,0,1,.76,1.84,2.54,2.54,0,0,1-1.82,2.46v.05a2.39,2.39,0,0,1,1.41,1.95,15.86,15.86,0,0,0,.75,2.65H644a12.65,12.65,0,0,1-.65-2.31c-.28-1.33-.8-1.83-1.93-1.88h-1.18V358H639Zm1.24,4.4h1.28c1.33,0,2.18-.73,2.18-1.84s-.9-1.79-2.22-1.8a5.15,5.15,0,0,0-1.24.11Z" transform="translate(-585.22 -347.47)"/><path class="cls-1" d="M655,353.1c0,3.32-2,5.09-4.49,5.09s-4.34-2-4.34-4.91,1.9-5.07,4.48-5.07S655,350.23,655,353.1Zm-7.5.16c0,2.06,1.12,3.91,3.08,3.91s3.1-1.82,3.1-4c0-1.93-1-3.93-3.08-3.93S647.54,351.13,647.54,353.26Z" transform="translate(-585.22 -347.47)"/><path class="cls-1" d="M656.65,348.37h5.21v1h-4v3.21h3.66v1H657.9V358h-1.25Z" transform="translate(-585.22 -347.47)"/><path class="cls-1" d="M668.63,353.5h-3.75V357h4.18v1h-5.43v-9.66h5.22v1h-4v3.06h3.75Z" transform="translate(-585.22 -347.47)"/><path class="cls-1" d="M670.51,356.51a4.48,4.48,0,0,0,2.24.63c1.27,0,2-.67,2-1.65s-.52-1.42-1.82-1.92c-1.58-.56-2.55-1.38-2.55-2.74s1.24-2.62,3.12-2.62a4.45,4.45,0,0,1,2.14.47l-.35,1a3.84,3.84,0,0,0-1.83-.46c-1.32,0-1.82.79-1.82,1.45,0,.9.58,1.35,1.92,1.86,1.63.63,2.46,1.42,2.46,2.84s-1.1,2.78-3.38,2.78a5,5,0,0,1-2.46-.61Z" transform="translate(-585.22 -347.47)"/><path class="cls-1" d="M682.28,358v-4.1l-3.06-5.56h1.42L682,351c.38.73.66,1.32,1,2h0c.28-.63.61-1.27,1-2l1.39-2.66h1.42l-3.24,5.54V358Z" transform="translate(-585.22 -347.47)"/><path class="cls-1" d="M639.54,368.08c-.07-1.35-.15-3-.14-4.17h0c-.33,1.13-.73,2.34-1.22,3.67l-1.71,4.69h-.94l-1.56-4.6c-.46-1.37-.85-2.61-1.12-3.76h0c0,1.2-.1,2.82-.19,4.27l-.25,4.14h-1.19l.67-9.66h1.59l1.65,4.68c.4,1.19.73,2.25,1,3.25h.05c.24-1,.58-2,1-3.25l1.72-4.68h1.59l.61,9.66h-1.22Z" transform="translate(-585.22 -347.47)"/><path class="cls-1" d="M644.34,369.29l-1,3h-1.29l3.28-9.66h1.51l3.29,9.66H648.8l-1-3Zm3.17-1-.94-2.78c-.22-.63-.36-1.2-.51-1.76h0c-.15.57-.31,1.16-.49,1.75l-.95,2.79Z" transform="translate(-585.22 -347.47)"/><path class="cls-1" d="M656.55,367.8H652.8v3.48H657v1h-5.43v-9.66h5.22v1h-4v3.05h3.75Z" transform="translate(-585.22 -347.47)"/><path class="cls-1" d="M658.43,370.81a4.48,4.48,0,0,0,2.24.63c1.27,0,2-.68,2-1.65s-.52-1.42-1.82-1.92c-1.58-.56-2.55-1.38-2.55-2.74s1.24-2.62,3.12-2.62a4.45,4.45,0,0,1,2.14.47l-.35,1a3.73,3.73,0,0,0-1.83-.46c-1.32,0-1.82.79-1.82,1.45,0,.9.58,1.34,1.92,1.86,1.63.63,2.46,1.42,2.46,2.84s-1.1,2.78-3.38,2.78a4.89,4.89,0,0,1-2.46-.62Z" transform="translate(-585.22 -347.47)"/><path class="cls-1" d="M667.5,363.72h-2.94v-1.06h7.16v1.06h-3v8.6H667.5Z" transform="translate(-585.22 -347.47)"/><path class="cls-1" d="M672.79,362.79a12.86,12.86,0,0,1,2.39-.2,4,4,0,0,1,2.8.79,2.4,2.4,0,0,1,.76,1.84,2.54,2.54,0,0,1-1.82,2.46v0a2.43,2.43,0,0,1,1.42,1.95,14.91,14.91,0,0,0,.74,2.65h-1.29a12.17,12.17,0,0,1-.64-2.3c-.29-1.34-.81-1.84-1.94-1.88H674v4.18h-1.25Zm1.25,4.4h1.27c1.34,0,2.18-.73,2.18-1.83,0-1.25-.9-1.79-2.22-1.81a4.89,4.89,0,0,0-1.23.12Z" transform="translate(-585.22 -347.47)"/><path class="cls-1" d="M688.8,367.39c0,3.33-2,5.09-4.49,5.09s-4.34-2-4.34-4.9,1.9-5.07,4.48-5.07S688.8,364.53,688.8,367.39Zm-7.5.16c0,2.07,1.12,3.91,3.08,3.91s3.1-1.82,3.1-4c0-1.92-1-3.93-3.08-3.93S681.3,365.43,681.3,367.55Z" transform="translate(-585.22 -347.47)"/><path class="cls-1" d="M690.24,370.81a4.48,4.48,0,0,0,2.24.63c1.27,0,2-.68,2-1.65s-.52-1.42-1.82-1.92c-1.58-.56-2.55-1.38-2.55-2.74s1.25-2.62,3.12-2.62a4.45,4.45,0,0,1,2.14.47l-.34,1a3.81,3.81,0,0,0-1.84-.46c-1.32,0-1.82.79-1.82,1.45,0,.9.59,1.34,1.92,1.86,1.63.63,2.47,1.42,2.47,2.84s-1.11,2.78-3.39,2.78a4.89,4.89,0,0,1-2.46-.62Z" transform="translate(-585.22 -347.47)"/><path class="cls-2" d="M586.11,357.57l9.53-8.28a3.5,3.5,0,0,1,2.46-1h18.82a4.89,4.89,0,0,1,4.89,4.89h0a4.89,4.89,0,0,1-1.44,3.46L612,365a.12.12,0,0,1-.21-.09v-2.73a4.23,4.23,0,0,0-4.44-4.23l-21.08.06A.25.25,0,0,1,586.11,357.57Z" transform="translate(-585.22 -347.47)"/><path class="cls-2" d="M611.8,364.22v.33c0,.61-.5.78-1.12.78H586.16" transform="translate(-585.22 -347.47)"/><line class="cls-2" x1="21.39" y1="14.32" x2="3.3" y2="14.32"/><path class="cls-2" d="M621.1,356.05a4.89,4.89,0,0,1,3,4.51h0a4.9,4.9,0,0,1-1.43,3.46l-8.36,8.35a.13.13,0,0,1-.22-.09v-2.72a4.23,4.23,0,0,0-4.43-4.23l-21.08.06" transform="translate(-585.22 -347.47)"/><path class="cls-2" d="M614.07,371.61v.33c0,.61-.5.78-1.11.78H586.72" transform="translate(-585.22 -347.47)"/><line class="cls-2" x1="23.66" y1="21.71" x2="3.86" y2="21.71"/></svg>